<svg width="24" height="24" viewBox="0 0 24 24" fill="none" xmlns="http://www.w3.org/2000/svg">
  <title>WeChat</title>
  <rect width="24" height="24" rx="5" fill="#07C160"/>
  <path d="M10.2 6.2C6.8 6.2 4 8.45 4 11.25c0 1.55.85 2.93 2.18 3.86l-.5 1.63 1.91-.95c.78.32 1.66.5 2.61.5 3.43 0 6.2-2.25 6.2-5.04S13.63 6.2 10.2 6.2Zm-2.05 4.12a.78.78 0 1 1 0-1.56.78.78 0 0 1 0 1.56Zm4.08 0a.78.78 0 1 1 0-1.56.78.78 0 0 1 0 1.56Z" fill="white"/>
  <path d="M20 14.18c0-2.26-2.18-4.1-4.88-4.1-.08 0-.16 0-.24.02.17.46.26.94.26 1.45 0 3.04-2.94 5.5-6.57 5.5-.1 0-.2 0-.31-.01.9.76 2.13 1.24 3.5 1.24.75 0 1.46-.14 2.09-.4l1.54.76-.4-1.3C18 16.59 20 15.5 20 14.18Zm-6.42-1.05a.63.63 0 1 1 0-1.26.63.63 0 0 1 0 1.26Zm3.22 0a.63.63 0 1 1 0-1.26.63.63 0 0 1 0 1.26Z" fill="white" opacity=".9"/>
</svg>
